<svg xmlns="http://www.w3.org/2000/svg" width="512" height="512" viewBox="0 0 200 200">
  <defs>
    <linearGradient id="g" x1="0" y1="0" x2="1" y2="1">
      <stop offset="0%" stop-color="#16a34a" />
      <stop offset="100%" stop-color="#14532d" />
    </linearGradient>
  </defs>
  <rect x="6" y="6" width="188" height="188" rx="36" fill="url(#g)" />
  <circle cx="64" cy="64" r="10" fill="#e7f6ec" opacity="0.35" />
  <circle cx="140" cy="50" r="6" fill="#e7f6ec" opacity="0.25" />

  <!-- Rabbit head + ears -->
  <g fill="#ffffff">
    <ellipse cx="90" cy="98" rx="34" ry="28" />
    <ellipse cx="70" cy="56" rx="10" ry="28" transform="rotate(-10 70 56)" />
    <ellipse cx="90" cy="52" rx="10" ry="30" transform="rotate(8 90 52)" />
  </g>

  <!-- Leaf accent -->
  <path d="M124 118c16-2 30-12 36-26-14 2-28 10-36 26z" fill="#bbf7d0" />
  <path d="M124 118c10-12 18-18 28-22" stroke="#86efac" stroke-width="4" stroke-linecap="round" />

  <!-- Rabbit details -->
  <circle cx="82" cy="98" r="4" fill="#14532d" />
  <circle cx="100" cy="98" r="4" fill="#14532d" />
  <path d="M88 112c6 6 12 6 18 0" stroke="#14532d" stroke-width="4" stroke-linecap="round" fill="none" />
</svg>
