<svg width="512" height="512" viewBox="0 0 64 64" fill="none" xmlns="http://www.w3.org/2000/svg">
  <!-- Background: A green, leaf-like shape -->
  <path d="M32 2 C16 2 4 16 4 32 C4 48 16 62 32 62 C48 62 60 48 60 32 C60 16 48 2 32 2 Z" fill="#16a34a"/>
  <!-- Rabbit Silhouette: A simple, modern rabbit icon in white -->
  <path d="M35.5 30.5c0-2.5 2-5.5 2-5.5s-2-3-2-5.5c0-2-1.5-3.5-3.5-3.5s-3.5 1.5-3.5 3.5c0 2.5-2 5.5-2 5.5s2 3 2 5.5c0 2.5-1.5 4-3.5 4s-3.5-1.5-3.5-4 M38 48c-2 0-3.5-1.5-3.5-3.5 0-2 1.5-3.5 3.5-3.5s3.5 1.5 3.5 3.5c0 2-1.5 3.5-3.5 3.5z" stroke="white" stroke-width="3" stroke-linecap="round" stroke-linejoin="round" fill="none"/>
</svg>